<mxfile host="65bd71144e">
    <diagram id="1FoX2q88yo9wFuw350qZ" name="Page-1">
        <mxGraphModel dx="807" dy="1464" grid="1" gridSize="10" guides="1" tooltips="1" connect="1" arrows="1" fold="1" page="1" pageScale="1" pageWidth="827" pageHeight="1169" math="0" shadow="0">
            <root>
                <mxCell id="0"/>
                <mxCell id="1" parent="0"/>
                <mxCell id="65" value="" style="rounded=0;whiteSpace=wrap;html=1;fontSize=14;fillColor=#647687;fontColor=#ffffff;strokeColor=#314354;" vertex="1" parent="1">
                    <mxGeometry x="170" y="850" width="1020" height="840" as="geometry"/>
                </mxCell>
                <mxCell id="67" value="" style="rounded=0;whiteSpace=wrap;html=1;fontSize=14;fontColor=#ffffff;fillColor=#76608a;strokeColor=#432D57;" vertex="1" parent="1">
                    <mxGeometry x="170" y="850" width="1020" height="420" as="geometry"/>
                </mxCell>
                <mxCell id="42" value="" style="rounded=0;whiteSpace=wrap;html=1;fontSize=14;fillColor=#647687;fontColor=#ffffff;strokeColor=#314354;" vertex="1" parent="1">
                    <mxGeometry x="170" y="490" width="840" height="300" as="geometry"/>
                </mxCell>
                <mxCell id="29" style="edgeStyle=none;html=1;" edge="1" parent="1" source="25" target="28">
                    <mxGeometry relative="1" as="geometry">
                        <Array as="points">
                            <mxPoint x="400" y="590"/>
                        </Array>
                    </mxGeometry>
                </mxCell>
                <mxCell id="25" value="等待来自上层的调用" style="ellipse;whiteSpace=wrap;html=1;aspect=fixed;fillColor=#0050ef;strokeColor=#001DBC;fontColor=#ffffff;" vertex="1" parent="1">
                    <mxGeometry x="230" y="600" width="80" height="80" as="geometry"/>
                </mxCell>
                <mxCell id="30" style="edgeStyle=none;html=1;" edge="1" parent="1" source="28" target="25">
                    <mxGeometry relative="1" as="geometry">
                        <Array as="points">
                            <mxPoint x="400" y="670"/>
                        </Array>
                    </mxGeometry>
                </mxCell>
                <mxCell id="33" style="edgeStyle=none;html=1;entryX=1.016;entryY=0.659;entryDx=0;entryDy=0;entryPerimeter=0;" edge="1" parent="1" source="28" target="28">
                    <mxGeometry relative="1" as="geometry">
                        <mxPoint x="540" y="600.0000000000002" as="targetPoint"/>
                        <Array as="points">
                            <mxPoint x="510" y="640"/>
                        </Array>
                    </mxGeometry>
                </mxCell>
                <mxCell id="28" value="等待ACK或NACK" style="ellipse;whiteSpace=wrap;html=1;aspect=fixed;fillColor=#0050ef;strokeColor=#001DBC;fontColor=#ffffff;" vertex="1" parent="1">
                    <mxGeometry x="480" y="590" width="80" height="80" as="geometry"/>
                </mxCell>
                <mxCell id="31" value="&lt;font style=&quot;font-size: 14px;&quot;&gt;rdt_send(data)&lt;br&gt;snkpkt=make_pkt(data,checksum)&lt;br&gt;udt_send(sndpkt)&lt;br&gt;&lt;/font&gt;" style="text;html=1;strokeColor=none;fillColor=none;align=center;verticalAlign=middle;whiteSpace=wrap;rounded=0;" vertex="1" parent="1">
                    <mxGeometry x="280" y="540" width="60" height="30" as="geometry"/>
                </mxCell>
                <mxCell id="32" value="&lt;font style=&quot;font-size: 14px;&quot;&gt;rdt_rcv(rcvpkt) &amp;amp;&amp;amp; isACK(rcvpkt)&lt;br&gt;&lt;/font&gt;" style="text;html=1;strokeColor=none;fillColor=none;align=center;verticalAlign=middle;whiteSpace=wrap;rounded=0;" vertex="1" parent="1">
                    <mxGeometry x="300" y="690" width="230" height="30" as="geometry"/>
                </mxCell>
                <mxCell id="36" value="&lt;font style=&quot;font-size: 14px;&quot;&gt;rdt_rcv(rcvpkt) &amp;amp;&amp;amp; isNAK(rcvpkt)&lt;br&gt;&lt;/font&gt;" style="text;html=1;strokeColor=none;fillColor=none;align=center;verticalAlign=middle;whiteSpace=wrap;rounded=0;" vertex="1" parent="1">
                    <mxGeometry x="440" y="550" width="230" height="30" as="geometry"/>
                </mxCell>
                <mxCell id="37" value="&lt;font style=&quot;font-size: 14px;&quot;&gt;udt_send(sndpkt)&lt;br&gt;&lt;/font&gt;" style="text;html=1;strokeColor=none;fillColor=none;align=center;verticalAlign=middle;whiteSpace=wrap;rounded=0;" vertex="1" parent="1">
                    <mxGeometry x="490" y="650" width="230" height="30" as="geometry"/>
                </mxCell>
                <mxCell id="43" value="" style="group" vertex="1" connectable="0" parent="1">
                    <mxGeometry x="170" y="270" width="510" height="150" as="geometry"/>
                </mxCell>
                <mxCell id="2" value="" style="rounded=0;whiteSpace=wrap;html=1;fontSize=14;fillColor=#647687;fontColor=#ffffff;strokeColor=#314354;" vertex="1" parent="43">
                    <mxGeometry y="30" width="510" height="120" as="geometry"/>
                </mxCell>
                <mxCell id="3" value="等待来自上层的调用" style="ellipse;whiteSpace=wrap;html=1;aspect=fixed;fillColor=#0050ef;strokeColor=#001DBC;fontColor=#ffffff;" vertex="1" parent="43">
                    <mxGeometry y="40" width="80" height="80" as="geometry"/>
                </mxCell>
                <mxCell id="4" value="等待来自下层的调用" style="ellipse;whiteSpace=wrap;html=1;aspect=fixed;fillColor=#0050ef;fontColor=#ffffff;strokeColor=#001DBC;" vertex="1" parent="43">
                    <mxGeometry x="430" y="40" width="80" height="80" as="geometry"/>
                </mxCell>
                <mxCell id="5" value="" style="endArrow=classic;html=1;exitX=1;exitY=0.5;exitDx=0;exitDy=0;entryX=0;entryY=0.5;entryDx=0;entryDy=0;" edge="1" parent="43" source="3" target="4">
                    <mxGeometry width="50" height="50" relative="1" as="geometry">
                        <mxPoint x="190" y="-20" as="sourcePoint"/>
                        <mxPoint x="240" y="-70" as="targetPoint"/>
                    </mxGeometry>
                </mxCell>
                <mxCell id="6" value="&lt;font style=&quot;font-size: 14px;&quot;&gt;rdt_send()&lt;/font&gt;" style="text;html=1;strokeColor=none;fillColor=none;align=center;verticalAlign=middle;whiteSpace=wrap;rounded=0;" vertex="1" parent="43">
                    <mxGeometry x="100" y="50" width="60" height="30" as="geometry"/>
                </mxCell>
                <mxCell id="7" value="&lt;font style=&quot;font-size: 14px;&quot;&gt;packet=make_pkt(data)&lt;/font&gt;" style="text;html=1;strokeColor=none;fillColor=none;align=center;verticalAlign=middle;whiteSpace=wrap;rounded=0;" vertex="1" parent="43">
                    <mxGeometry x="120" y="90" width="60" height="30" as="geometry"/>
                </mxCell>
                <mxCell id="8" value="&lt;font style=&quot;font-size: 14px;&quot;&gt;udt_send(packet)&lt;/font&gt;" style="text;html=1;strokeColor=none;fillColor=none;align=center;verticalAlign=middle;whiteSpace=wrap;rounded=0;" vertex="1" parent="43">
                    <mxGeometry x="100" y="120" width="60" height="30" as="geometry"/>
                </mxCell>
                <mxCell id="9" value="&lt;font style=&quot;font-size: 14px;&quot;&gt;rdt_rcv(packet)&lt;/font&gt;" style="text;html=1;strokeColor=none;fillColor=none;align=center;verticalAlign=middle;whiteSpace=wrap;rounded=0;" vertex="1" parent="43">
                    <mxGeometry x="340" y="50" width="60" height="30" as="geometry"/>
                </mxCell>
                <mxCell id="10" value="&lt;font style=&quot;font-size: 14px;&quot;&gt;extract(packet.data)&lt;/font&gt;" style="text;html=1;strokeColor=none;fillColor=none;align=center;verticalAlign=middle;whiteSpace=wrap;rounded=0;" vertex="1" parent="43">
                    <mxGeometry x="340" y="90" width="60" height="30" as="geometry"/>
                </mxCell>
                <mxCell id="11" value="&lt;font style=&quot;font-size: 14px;&quot;&gt;deliver_data(data)&lt;/font&gt;" style="text;html=1;strokeColor=none;fillColor=none;align=center;verticalAlign=middle;whiteSpace=wrap;rounded=0;" vertex="1" parent="43">
                    <mxGeometry x="340" y="120" width="60" height="30" as="geometry"/>
                </mxCell>
                <mxCell id="12" value="rdt1.0:信道完全可靠" style="text;html=1;strokeColor=none;fillColor=none;align=center;verticalAlign=middle;whiteSpace=wrap;rounded=0;" vertex="1" parent="43">
                    <mxGeometry width="130" height="30" as="geometry"/>
                </mxCell>
                <mxCell id="45" value="rdt2.0:bit出错" style="text;html=1;strokeColor=none;fillColor=none;align=center;verticalAlign=middle;whiteSpace=wrap;rounded=0;" vertex="1" parent="1">
                    <mxGeometry x="170" y="460" width="110" height="30" as="geometry"/>
                </mxCell>
                <mxCell id="46" value="" style="group" vertex="1" connectable="0" parent="1">
                    <mxGeometry x="720" y="505" width="258" height="250" as="geometry"/>
                </mxCell>
                <mxCell id="38" style="edgeStyle=none;html=1;entryX=0.5;entryY=0;entryDx=0;entryDy=0;" edge="1" parent="46" source="27" target="27">
                    <mxGeometry relative="1" as="geometry">
                        <mxPoint x="-14.5" y="59.99999999999977" as="targetPoint"/>
                        <Array as="points">
                            <mxPoint x="195.5" y="40"/>
                            <mxPoint x="85.5" y="40"/>
                        </Array>
                    </mxGeometry>
                </mxCell>
                <mxCell id="40" style="edgeStyle=none;html=1;fontSize=14;" edge="1" parent="46" source="27" target="27">
                    <mxGeometry relative="1" as="geometry">
                        <mxPoint x="105.5" y="210.00000000000023" as="targetPoint"/>
                        <Array as="points">
                            <mxPoint x="175.5" y="190"/>
                        </Array>
                    </mxGeometry>
                </mxCell>
                <mxCell id="27" value="等待来自下层的调用" style="ellipse;whiteSpace=wrap;html=1;aspect=fixed;fillColor=#0050ef;fontColor=#ffffff;strokeColor=#001DBC;" vertex="1" parent="46">
                    <mxGeometry x="95.5" y="80" width="80" height="80" as="geometry"/>
                </mxCell>
                <mxCell id="39" value="&lt;font style=&quot;font-size: 14px;&quot;&gt;rdt_rcv(rcvpkt) &amp;amp;&amp;amp; corrupt(rcvpkt)&lt;br&gt;udt_send(NAK)&lt;/font&gt;" style="text;html=1;strokeColor=none;fillColor=none;align=center;verticalAlign=middle;whiteSpace=wrap;rounded=0;" vertex="1" parent="46">
                    <mxGeometry x="13" width="245" height="30" as="geometry"/>
                </mxCell>
                <mxCell id="41" value="rdt_rcv(rcvpkt) &amp;amp;&amp;amp; notcorrupt(rcvpkt)&lt;br&gt;extract(rcvpkt.data)&lt;br&gt;deliver_data(data)&lt;br&gt;udt_send(ACK)" style="text;html=1;strokeColor=none;fillColor=none;align=center;verticalAlign=middle;whiteSpace=wrap;rounded=0;fontSize=14;" vertex="1" parent="46">
                    <mxGeometry y="220" width="247" height="30" as="geometry"/>
                </mxCell>
                <mxCell id="52" style="edgeStyle=none;html=1;entryX=0;entryY=0.5;entryDx=0;entryDy=0;fontSize=14;" edge="1" parent="1" source="48" target="49">
                    <mxGeometry relative="1" as="geometry"/>
                </mxCell>
                <mxCell id="48" value="等待来自上层的调用--0" style="ellipse;whiteSpace=wrap;html=1;aspect=fixed;fontSize=14;fillColor=#fa6800;fontColor=#000000;strokeColor=#C73500;" vertex="1" parent="1">
                    <mxGeometry x="420" y="930" width="80" height="80" as="geometry"/>
                </mxCell>
                <mxCell id="53" style="edgeStyle=none;html=1;entryX=0.5;entryY=0;entryDx=0;entryDy=0;fontSize=14;" edge="1" parent="1" source="49" target="51">
                    <mxGeometry relative="1" as="geometry"/>
                </mxCell>
                <mxCell id="49" value="等待ACK或NAK--0" style="ellipse;whiteSpace=wrap;html=1;aspect=fixed;fontSize=14;fillColor=#fa6800;fontColor=#000000;strokeColor=#C73500;" vertex="1" parent="1">
                    <mxGeometry x="710" y="930" width="80" height="80" as="geometry"/>
                </mxCell>
                <mxCell id="55" style="edgeStyle=none;html=1;entryX=0.5;entryY=1;entryDx=0;entryDy=0;fontSize=14;" edge="1" parent="1" source="50" target="48">
                    <mxGeometry relative="1" as="geometry"/>
                </mxCell>
                <mxCell id="50" value="&lt;font color=&quot;#1a1a1a&quot;&gt;等待ACK或NAK--1&lt;/font&gt;" style="ellipse;whiteSpace=wrap;html=1;aspect=fixed;fontSize=14;fillColor=#fa6800;fontColor=#000000;strokeColor=#C73500;" vertex="1" parent="1">
                    <mxGeometry x="421" y="1080" width="80" height="80" as="geometry"/>
                </mxCell>
                <mxCell id="54" style="edgeStyle=none;html=1;entryX=1;entryY=0.5;entryDx=0;entryDy=0;fontSize=14;" edge="1" parent="1" source="51" target="50">
                    <mxGeometry relative="1" as="geometry"/>
                </mxCell>
                <mxCell id="51" value="等待来自上层的调用--1" style="ellipse;whiteSpace=wrap;html=1;aspect=fixed;fontSize=14;fillColor=#fa6800;fontColor=#000000;strokeColor=#C73500;" vertex="1" parent="1">
                    <mxGeometry x="710" y="1080" width="80" height="80" as="geometry"/>
                </mxCell>
                <mxCell id="56" style="edgeStyle=none;html=1;fontSize=14;" edge="1" parent="1" source="49" target="49">
                    <mxGeometry relative="1" as="geometry"/>
                </mxCell>
                <mxCell id="57" style="edgeStyle=none;html=1;fontSize=14;" edge="1" parent="1" source="50" target="50">
                    <mxGeometry relative="1" as="geometry">
                        <Array as="points">
                            <mxPoint x="390" y="1170"/>
                        </Array>
                    </mxGeometry>
                </mxCell>
                <mxCell id="58" value="rdt_send(data)&lt;br&gt;sndpkt=make_pkt(0, data, checksum)&lt;br&gt;udt_send(firpkt)" style="text;html=1;strokeColor=none;fillColor=none;align=center;verticalAlign=middle;whiteSpace=wrap;rounded=0;fontSize=14;" vertex="1" parent="1">
                    <mxGeometry x="533" y="880" width="60" height="30" as="geometry"/>
                </mxCell>
                <mxCell id="59" value="rdt_rcv(rcvpkt) &amp;amp;&amp;amp; (corrupt(rcvpkt) || isNAK(rcvpkt))&lt;br&gt;udt_send(sndpkt)" style="text;html=1;strokeColor=none;fillColor=none;align=center;verticalAlign=middle;whiteSpace=wrap;rounded=0;fontSize=14;" vertex="1" parent="1">
                    <mxGeometry x="800" y="940" width="350" height="30" as="geometry"/>
                </mxCell>
                <mxCell id="60" value="rdt_rcv(rcvpkt) &amp;amp;&amp;amp; (notcorrupt(rcvpkt) &amp;amp;&amp;amp; isACK(rcvpkt))" style="text;html=1;strokeColor=none;fillColor=none;align=center;verticalAlign=middle;whiteSpace=wrap;rounded=0;fontSize=14;" vertex="1" parent="1">
                    <mxGeometry x="790" y="1030" width="350" height="30" as="geometry"/>
                </mxCell>
                <mxCell id="61" value="rdt_send(data)&lt;br&gt;sndpkt=make_pkt(data)&lt;br&gt;udt(sndpkt)" style="text;html=1;strokeColor=none;fillColor=none;align=center;verticalAlign=middle;whiteSpace=wrap;rounded=0;fontSize=14;" vertex="1" parent="1">
                    <mxGeometry x="620" y="1160" width="60" height="30" as="geometry"/>
                </mxCell>
                <mxCell id="63" value="rdt_rcv(rcvpkt) &amp;amp;&amp;amp; (corrupt(rcvpkt) ||&amp;nbsp; isNAK(rcvpkt))&lt;br&gt;udt_send(sndpkt)" style="text;html=1;strokeColor=none;fillColor=none;align=center;verticalAlign=middle;whiteSpace=wrap;rounded=0;fontSize=14;" vertex="1" parent="1">
                    <mxGeometry x="170" y="1180" width="340" height="30" as="geometry"/>
                </mxCell>
                <mxCell id="64" value="rdt_rcv(rcvpkt) &amp;amp;&amp;amp; notcorrupt(rcvpkt) &amp;amp;&amp;amp; isACK(rcvpkt)" style="text;html=1;strokeColor=none;fillColor=none;align=center;verticalAlign=middle;whiteSpace=wrap;rounded=0;fontSize=14;" vertex="1" parent="1">
                    <mxGeometry x="240" y="1040" width="350" height="30" as="geometry"/>
                </mxCell>
                <mxCell id="66" value="rdt2.1:ACK/NAK出错" style="text;html=1;strokeColor=none;fillColor=none;align=center;verticalAlign=middle;whiteSpace=wrap;rounded=0;" vertex="1" parent="1">
                    <mxGeometry x="170" y="820" width="130" height="30" as="geometry"/>
                </mxCell>
                <mxCell id="68" value="&lt;h1&gt;发送方&lt;/h1&gt;" style="text;html=1;strokeColor=none;fillColor=none;spacing=5;spacingTop=-20;whiteSpace=wrap;overflow=hidden;rounded=0;fontSize=14;fontColor=#1A1A1A;" vertex="1" parent="1">
                    <mxGeometry x="930" y="1150" width="110" height="40" as="geometry"/>
                </mxCell>
                <mxCell id="69" value="" style="rounded=0;whiteSpace=wrap;html=1;fontSize=14;fontColor=#ffffff;fillColor=#6d8764;strokeColor=#3A5431;" vertex="1" parent="1">
                    <mxGeometry x="170" y="1270" width="1020" height="420" as="geometry"/>
                </mxCell>
                <mxCell id="75" style="edgeStyle=none;html=1;fontSize=14;fontColor=#1A1A1A;" edge="1" parent="1" source="70" target="71">
                    <mxGeometry relative="1" as="geometry">
                        <Array as="points">
                            <mxPoint x="640" y="1420"/>
                        </Array>
                    </mxGeometry>
                </mxCell>
                <mxCell id="70" value="等待来自下层的调用--0" style="ellipse;whiteSpace=wrap;html=1;aspect=fixed;fontSize=14;fontColor=#000000;fillColor=#e3c800;strokeColor=#B09500;" vertex="1" parent="1">
                    <mxGeometry x="421" y="1420" width="80" height="80" as="geometry"/>
                </mxCell>
                <mxCell id="77" style="edgeStyle=none;html=1;fontSize=14;fontColor=#1A1A1A;" edge="1" parent="1" source="71" target="70">
                    <mxGeometry relative="1" as="geometry">
                        <Array as="points">
                            <mxPoint x="650" y="1500"/>
                        </Array>
                    </mxGeometry>
                </mxCell>
                <mxCell id="71" value="等待来自下层的调用--1" style="ellipse;whiteSpace=wrap;html=1;aspect=fixed;fontSize=14;fontColor=#000000;fillColor=#e3c800;strokeColor=#B09500;" vertex="1" parent="1">
                    <mxGeometry x="770" y="1420" width="80" height="80" as="geometry"/>
                </mxCell>
                <mxCell id="73" style="edgeStyle=none;html=1;fontSize=14;fontColor=#1A1A1A;" edge="1" parent="1" source="70" target="70">
                    <mxGeometry relative="1" as="geometry">
                        <Array as="points">
                            <mxPoint x="400" y="1400"/>
                            <mxPoint x="380" y="1440"/>
                        </Array>
                    </mxGeometry>
                </mxCell>
                <mxCell id="74" style="edgeStyle=none;html=1;fontSize=14;fontColor=#1A1A1A;" edge="1" parent="1" source="70" target="70">
                    <mxGeometry relative="1" as="geometry">
                        <Array as="points">
                            <mxPoint x="390" y="1520"/>
                            <mxPoint x="380" y="1490"/>
                        </Array>
                    </mxGeometry>
                </mxCell>
                <mxCell id="80" value="&lt;font color=&quot;#ffffff&quot;&gt;rdt_rcv(rcvpkt) &amp;amp;&amp;amp; (corrupt(rcvpkt))&lt;br&gt;sndpkt=make_pkt(NAK,checksum)&lt;br&gt;udt_send(sndpkt)&lt;br&gt;&lt;/font&gt;" style="text;html=1;strokeColor=none;fillColor=none;align=center;verticalAlign=middle;whiteSpace=wrap;rounded=0;fontSize=14;fontColor=#1A1A1A;" vertex="1" parent="1">
                    <mxGeometry x="240" y="1360" width="270" height="30" as="geometry"/>
                </mxCell>
                <mxCell id="81" value="&lt;font color=&quot;#ffffff&quot;&gt;rdt_rcv(rcvpkt) &amp;amp;&amp;amp; notcorrupt(rcvpkt) &amp;amp;&amp;amp; has_seq1(rcvpkt)&lt;br&gt;sndpkt=make_pkt(ACK,checksum)&lt;br&gt;udt_send(sndpkt)&lt;br&gt;&lt;/font&gt;" style="text;html=1;strokeColor=none;fillColor=none;align=center;verticalAlign=middle;whiteSpace=wrap;rounded=0;fontSize=14;fontColor=#1A1A1A;" vertex="1" parent="1">
                    <mxGeometry x="150" y="1530" width="410" height="30" as="geometry"/>
                </mxCell>
                <mxCell id="82" value="rdt_rcv(rcvpkt) &amp;amp;&amp;amp; notcorrupt(rcvpkt) &amp;amp;&amp;amp; has_seq0(rcvpkt)&lt;br&gt;extract(rcvpkt.data)&lt;br&gt;deliver_data(data)&lt;br&gt;sndpkt = make_pkt(ACK, checksum)&lt;br&gt;udt_send(sndpkt)" style="text;html=1;strokeColor=none;fillColor=none;align=center;verticalAlign=middle;whiteSpace=wrap;rounded=0;fontSize=14;fontColor=#FFFFFF;" vertex="1" parent="1">
                    <mxGeometry x="440" y="1350" width="420" height="30" as="geometry"/>
                </mxCell>
                <mxCell id="83" style="edgeStyle=none;html=1;entryX=1;entryY=0.5;entryDx=0;entryDy=0;fontSize=14;fontColor=#FFFFFF;" edge="1" parent="1" source="71" target="71">
                    <mxGeometry relative="1" as="geometry">
                        <Array as="points">
                            <mxPoint x="870" y="1410"/>
                            <mxPoint x="880" y="1430"/>
                            <mxPoint x="870" y="1440"/>
                        </Array>
                    </mxGeometry>
                </mxCell>
                <mxCell id="84" style="edgeStyle=none;html=1;fontSize=14;fontColor=#FFFFFF;" edge="1" parent="1" source="71" target="71">
                    <mxGeometry relative="1" as="geometry">
                        <Array as="points">
                            <mxPoint x="870" y="1470"/>
                            <mxPoint x="900" y="1480"/>
                            <mxPoint x="900" y="1500"/>
                        </Array>
                    </mxGeometry>
                </mxCell>
                <mxCell id="85" value="rdt_rcv(rcvpkt) &amp;amp;&amp;amp; (corrupt(rcvpkt))&lt;br&gt;sndpkt=make_pkt(NAK, checksum)&lt;br&gt;udt_send(sndpkt)" style="text;html=1;strokeColor=none;fillColor=none;align=center;verticalAlign=middle;whiteSpace=wrap;rounded=0;fontSize=14;fontColor=#FFFFFF;" vertex="1" parent="1">
                    <mxGeometry x="870" y="1390" width="293" height="30" as="geometry"/>
                </mxCell>
                <mxCell id="86" value="rdt_rcv(rcvpkt) &amp;amp;&amp;amp; notcorrupt(rcvpkt) &amp;amp;&amp;amp; has_seq0(rcvpkt)&lt;br&gt;sndpkt=make_pkt(ACK, checksum)&lt;br&gt;udt_send(sndpkt)" style="text;html=1;strokeColor=none;fillColor=none;align=center;verticalAlign=middle;whiteSpace=wrap;rounded=0;fontSize=14;fontColor=#FFFFFF;" vertex="1" parent="1">
                    <mxGeometry x="870" y="1510" width="293" height="30" as="geometry"/>
                </mxCell>
                <mxCell id="87" value="rdt_rcv(rcvpkt) &amp;amp;&amp;amp; notcorrupt(rcvpkt) &amp;amp;&amp;amp; has_seq1(rcvpkt)&lt;br&gt;extract(rcvpkt.data)&lt;br&gt;deliver_data(data)&lt;br&gt;sndpkt=make_pkt(ACK, checksum)&lt;br&gt;udt_send(sndpkt)" style="text;html=1;strokeColor=none;fillColor=none;align=center;verticalAlign=middle;whiteSpace=wrap;rounded=0;fontSize=14;fontColor=#FFFFFF;" vertex="1" parent="1">
                    <mxGeometry x="460" y="1580" width="460" height="30" as="geometry"/>
                </mxCell>
                <mxCell id="88" value="&lt;font color=&quot;#1a1a1a&quot;&gt;等待1而收到0，说明在返回ACK/NAK时出错了，对方未能从状态0转到状态1&lt;/font&gt;" style="text;html=1;strokeColor=none;fillColor=none;align=center;verticalAlign=middle;whiteSpace=wrap;rounded=0;fontSize=14;fontColor=#FFFFFF;" vertex="1" parent="1">
                    <mxGeometry x="920" y="1580" width="173.5" height="30" as="geometry"/>
                </mxCell>
            </root>
        </mxGraphModel>
    </diagram>
</mxfile>